# Blender 4.4.3
# www.blender.org
mtllib Chess Tile.mtl
o Cube
v 1.000000 0.133799 -1.000000
v 1.000000 -0.133799 -1.000000
v 1.000000 0.133799 1.000000
v 1.000000 -0.133799 1.000000
v -1.000000 0.133799 -1.000000
v -1.000000 -0.133799 -1.000000
v -1.000000 0.133799 1.000000
v -1.000000 -0.133799 1.000000
v 0.741512 0.133799 -0.741512
v 0.741512 0.133799 0.741512
v -0.741512 0.133799 -0.741512
v -0.741512 0.133799 0.741512
v 0.741512 0.307338 -0.741512
v 0.741512 0.307338 0.741512
v -0.741512 0.307338 -0.741512
v -0.741512 0.307338 0.741512
vn -0.0000 1.0000 -0.0000
vn -0.0000 -0.0000 1.0000
vn -1.0000 -0.0000 -0.0000
vn -0.0000 -1.0000 -0.0000
vn 1.0000 -0.0000 -0.0000
vn -0.0000 -0.0000 -1.0000
vt 0.625000 1.000000
vt 0.625000 0.750000
vt 0.375000 0.750000
vt 0.375000 1.000000
vt 0.375000 0.000000
vt 0.625000 0.000000
vt 0.625000 0.250000
vt 0.375000 0.250000
vt 0.125000 0.500000
vt 0.375000 0.500000
vt 0.125000 0.750000
vt 0.625000 0.500000
vt 0.875000 0.500000
vt 0.875000 0.750000
s 0
usemtl Material
f 9/12/6 11/7/6 15/7/6 13/12/6
f 13/12/1 15/13/1 16/14/1 14/2/1
f 10/2/5 9/12/5 13/12/5 14/2/5
f 11/7/3 12/6/3 16/6/3 15/7/3
f 12/1/2 10/2/2 14/2/2 16/1/2
usemtl black
f 7/1/1 3/2/1 10/2/1 12/1/1
f 4/3/2 3/2/2 7/1/2 8/4/2
f 8/5/3 7/6/3 5/7/3 6/8/3
f 6/9/4 2/10/4 4/3/4 8/11/4
f 2/10/5 1/12/5 3/2/5 4/3/5
f 6/8/6 5/7/6 1/12/6 2/10/6
f 5/7/1 7/6/1 12/6/1 11/7/1
f 3/2/1 1/12/1 9/12/1 10/2/1
f 1/12/1 5/7/1 11/7/1 9/12/1
